<?xml version="1.0" encoding="UTF-8"?>
<svg id="Layer_1" data-name="Layer 1" xmlns="http://www.w3.org/2000/svg" viewBox="0 0 400 400">
  <defs>
    <style>
      .cls-1 {
        fill: #fff;
      }

      .cls-1, .cls-2, .cls-3 {
        fill-rule: evenodd;
      }

      .cls-2 {
        fill: #ed1c24;
      }

      .cls-3 {
        fill: #231f20;
      }

      .cls-4 {
        fill: #2e3192;
      }
    </style>
  </defs>
  <polygon class="cls-2" points="84.92 158.67 313.53 158.67 313.53 221.57 84.92 221.57 84.92 158.67 84.92 158.67"/>
  <polygon class="cls-3" points="96.86 168.8 96.86 196.08 99.33 196.08 96.65 199.33 96.65 211.31 120.11 211.31 120.11 208.23 122.75 211.43 133.35 211.43 133.35 184.37 130.25 184.37 133.03 180.99 133.03 168.89 109.82 168.89 109.82 172.31 107.04 168.93 96.86 168.8 96.86 168.8"/>
  <polygon class="cls-2" points="101.58 174.55 109.4 174.55 109.4 194.32 101.58 194.32 101.58 174.55 101.58 174.55"/>
  <polygon class="cls-1" points="128.09 174.5 128.09 183.76 111.8 183.76 111.8 174.5 128.09 174.5 128.09 174.5"/>
  <polygon class="cls-1" points="118.09 196.52 118.09 205.77 101.58 205.77 101.58 196.52 118.09 196.52 118.09 196.52"/>
  <polygon class="cls-1" points="120.27 186 128.09 186 128.09 205.77 120.27 205.77 120.27 186 120.27 186"/>
  <polygon class="cls-3" points="147.29 170.71 157.23 170.71 157.23 185.02 172.63 185.02 172.63 170.71 182.57 170.71 182.57 210.88 172.63 210.88 172.63 195.14 157.23 195.14 157.23 210.88 147.29 210.88 147.29 170.71 147.29 170.71"/>
  <polygon class="cls-3" points="231.35 170.71 241.68 170.71 264.17 170.71 264.17 181.08 241.68 181.08 241.68 186.38 257.59 186.38 257.59 196.13 241.68 196.13 241.68 210.88 231.35 210.88 231.35 196.13 231.35 186.38 231.35 181.08 231.35 170.71 231.35 170.71"/>
  <path class="cls-3" d="M298.9,185.19l3.61-10.31c-11.43-6.06-24.92-5.01-31.92,2.68-4.62,5.07-5.75,13.02-3.87,20.08,4.27,16,24.54,16.86,36.87,8.85l-5.22-9.79c-7.89,7.5-24.39,5.13-21.5-8,1.82-8.29,12.51-10.66,22.03-3.51h0Z"/>
  <path class="cls-3" d="M189.75,170.74v40.2h14.83c3.9,0,6.54,.23,10.35-1.28,17.17-6.82,13.35-33.28-.32-38.14-2.81-1-5.63-.77-8.53-.77h-16.34Zm10.68,9.76h7.45c4.61,0,8.39,4.58,8.39,10.18h0c0,5.6-3.77,10.18-8.39,10.18h-7.45v-20.37h0Z"/>
  <polygon class="cls-1" points="145.55 168.8 155.49 168.8 155.49 183.12 170.9 183.12 170.9 168.8 180.84 168.8 180.84 208.97 170.9 208.97 170.9 193.23 155.49 193.23 155.49 208.97 145.55 208.97 145.55 168.8 145.55 168.8"/>
  <polygon class="cls-1" points="229.61 168.8 239.94 168.8 262.43 168.8 262.43 179.17 239.94 179.17 239.94 184.48 255.85 184.48 255.85 194.22 239.94 194.22 239.94 208.97 229.61 208.97 229.61 194.22 229.61 184.48 229.61 179.17 229.61 168.8 229.61 168.8"/>
  <path class="cls-1" d="M297.16,183.29l3.61-10.32c-11.43-6.06-24.92-5.01-31.92,2.68-4.62,5.07-5.75,13.02-3.87,20.08,4.27,16,24.54,16.86,36.87,8.86l-5.22-9.79c-7.89,7.5-24.39,5.13-21.5-8,1.83-8.29,12.51-10.66,22.03-3.51h0Z"/>
  <path class="cls-1" d="M188.01,168.83v40.2h14.83c3.9,0,6.54,.23,10.35-1.28,17.17-6.82,13.35-33.28-.32-38.14-2.81-1-5.63-.77-8.52-.77h-16.34Zm10.68,9.76h7.45c4.61,0,8.39,4.58,8.39,10.18h0c0,5.6-3.78,10.18-8.39,10.18h-7.45v-20.37h0Z"/>
  <path class="cls-4" d="M103.94,240.64v-11.48h1.91v4.52h3.74v-4.52h1.91v11.48h-1.91v-5.02h-3.74v5.02h-1.91Zm9.1-4.28c0-.73,.15-1.44,.45-2.12,.3-.68,.72-1.21,1.26-1.56,.54-.36,1.15-.54,1.82-.54,1.04,0,1.89,.41,2.55,1.23,.66,.82,.99,1.85,.99,3.1s-.33,2.3-1,3.13c-.67,.83-1.51,1.24-2.52,1.24-.63,0-1.23-.17-1.8-.51-.57-.35-1-.85-1.3-1.52-.3-.67-.45-1.48-.45-2.43h0Zm1.86,.12c0,.83,.16,1.46,.48,1.89,.32,.44,.72,.66,1.19,.66s.87-.22,1.19-.66c.32-.44,.48-1.07,.48-1.91s-.16-1.44-.48-1.88c-.32-.44-.72-.66-1.19-.66s-.87,.22-1.19,.66c-.32,.44-.48,1.07-.48,1.89h0Zm11.14,4.16v-1.25c-.25,.44-.58,.79-.98,1.05-.41,.25-.84,.38-1.29,.38s-.87-.12-1.24-.37c-.36-.25-.63-.59-.79-1.03-.16-.44-.24-1.06-.24-1.84v-5.26h1.81v3.82c0,1.17,.03,1.89,.1,2.15,.07,.26,.19,.47,.36,.63,.18,.15,.4,.23,.67,.23,.31,0,.59-.1,.83-.31,.25-.21,.41-.46,.5-.77,.09-.31,.14-1.06,.14-2.24v-3.51h1.81v8.31h-1.68Zm2.92-2.37l1.82-.34c.08,.43,.23,.75,.47,.98,.24,.22,.57,.33,.99,.33,.47,0,.82-.1,1.06-.31,.16-.14,.24-.34,.24-.59,0-.17-.04-.31-.13-.42-.09-.1-.29-.2-.61-.29-1.46-.39-2.39-.75-2.78-1.07-.54-.45-.81-1.07-.81-1.87,0-.72,.23-1.32,.7-1.81,.47-.49,1.2-.74,2.18-.74s1.63,.19,2.09,.55c.46,.37,.77,.92,.94,1.65l-1.71,.38c-.07-.32-.21-.57-.42-.74-.2-.17-.5-.26-.87-.26-.48,0-.82,.08-1.03,.24-.14,.11-.2,.26-.2,.45,0,.16,.06,.29,.18,.4,.16,.15,.73,.35,1.69,.62,.96,.26,1.64,.59,2.02,.98,.38,.39,.57,.94,.57,1.63,0,.76-.26,1.42-.79,1.97-.52,.55-1.3,.82-2.33,.82-.93,0-1.67-.23-2.22-.69-.54-.46-.9-1.08-1.07-1.87h0Zm7.98-7.07v-2.04h1.81v2.04h-1.81Zm0,9.44v-8.31h1.81v8.31h-1.81Zm9.9,0h-1.81v-4.24c0-.9-.04-1.48-.12-1.74-.08-.26-.21-.47-.38-.61-.17-.14-.38-.22-.63-.22-.31,0-.6,.1-.84,.31-.25,.21-.42,.49-.51,.83-.09,.34-.14,.98-.14,1.91v3.77h-1.81v-8.31h1.68v1.22c.6-.94,1.35-1.41,2.26-1.41,.4,0,.77,.09,1.1,.26,.33,.18,.58,.4,.75,.67,.17,.27,.29,.58,.36,.92,.07,.34,.1,.84,.1,1.48v5.17h0Zm1.67,.55l2.07,.3c.04,.29,.12,.49,.24,.6,.17,.16,.44,.24,.81,.24,.47,0,.83-.09,1.07-.26,.16-.11,.28-.3,.36-.56,.06-.18,.08-.52,.08-1.01v-1.21c-.54,.9-1.23,1.35-2.05,1.35-.92,0-1.65-.47-2.19-1.42-.42-.75-.63-1.68-.63-2.79,0-1.39,.28-2.46,.83-3.2,.55-.73,1.24-1.1,2.06-1.1s1.55,.45,2.1,1.35v-1.17h1.69v7.46c0,.98-.07,1.71-.2,2.2-.13,.49-.32,.87-.56,1.14-.24,.28-.56,.49-.96,.65-.4,.15-.91,.23-1.53,.23-1.16,0-1.99-.24-2.47-.72-.49-.48-.73-1.1-.73-1.84,0-.07,0-.16,0-.27h0Zm1.62-4.88c0,.88,.14,1.53,.42,1.94,.28,.41,.63,.61,1.04,.61,.44,0,.82-.21,1.12-.63,.3-.42,.46-1.04,.46-1.87s-.15-1.5-.44-1.92c-.29-.42-.66-.63-1.11-.63s-.79,.21-1.07,.61c-.28,.41-.42,1.03-.42,1.88h0Zm10.29-7.15h3.49c.79,0,1.38,.07,1.8,.22,.55,.2,1.03,.55,1.42,1.06,.4,.51,.7,1.12,.91,1.86,.2,.74,.31,1.64,.31,2.71,0,.94-.1,1.76-.29,2.44-.24,.83-.57,1.51-1.01,2.03-.33,.39-.78,.7-1.34,.92-.42,.16-.98,.24-1.69,.24h-3.59v-11.48h0Zm1.91,1.94v7.6h1.42c.53,0,.92-.04,1.16-.11,.31-.09,.57-.25,.77-.48,.2-.23,.37-.6,.5-1.11,.13-.51,.19-1.22,.19-2.1s-.07-1.56-.19-2.04c-.13-.48-.31-.85-.54-1.11-.23-.27-.53-.45-.88-.54-.27-.08-.79-.11-1.57-.11h-.86Zm11.59,6.89l1.81,.37c-.23,.8-.6,1.42-1.1,1.84-.5,.42-1.13,.63-1.88,.63-1.19,0-2.07-.47-2.64-1.42-.45-.75-.68-1.71-.68-2.86,0-1.38,.3-2.46,.89-3.24,.59-.78,1.34-1.17,2.25-1.17,1.02,0,1.82,.41,2.41,1.23,.59,.82,.87,2.07,.85,3.75h-4.54c.01,.65,.16,1.16,.44,1.52,.28,.36,.63,.55,1.05,.55,.28,0,.52-.09,.72-.28,.19-.19,.34-.49,.44-.91h0Zm.1-2.22c-.01-.64-.15-1.12-.41-1.45-.26-.33-.57-.5-.94-.5-.4,0-.72,.18-.98,.53-.26,.35-.39,.82-.38,1.42h2.71Zm5.16,4.87l-2.76-8.31h1.9l1.29,4.24,.37,1.42c.1-.36,.16-.6,.19-.71,.06-.24,.13-.47,.19-.7l1.3-4.24h1.86l-2.72,8.31h-1.63Zm9.43-2.65l1.81,.37c-.23,.8-.6,1.42-1.1,1.84-.5,.42-1.13,.63-1.88,.63-1.19,0-2.07-.47-2.64-1.42-.45-.75-.68-1.71-.68-2.86,0-1.38,.3-2.46,.89-3.24,.59-.78,1.34-1.17,2.25-1.17,1.02,0,1.82,.41,2.41,1.23,.59,.82,.87,2.07,.85,3.75h-4.54c.01,.65,.16,1.16,.44,1.52,.28,.36,.63,.55,1.04,.55,.28,0,.52-.09,.72-.28,.19-.19,.34-.49,.44-.91h0Zm.1-2.22c-.01-.64-.15-1.12-.4-1.45-.26-.33-.57-.5-.94-.5-.4,0-.72,.18-.98,.53-.26,.35-.39,.82-.38,1.42h2.71Zm3.28,4.87v-11.48h1.81v11.48h-1.81Zm3.25-4.28c0-.73,.15-1.44,.45-2.12,.3-.68,.72-1.21,1.26-1.56,.54-.36,1.15-.54,1.82-.54,1.03,0,1.88,.41,2.55,1.23,.66,.82,.99,1.85,.99,3.1s-.33,2.3-1,3.13c-.67,.83-1.51,1.24-2.52,1.24-.63,0-1.23-.17-1.8-.51-.57-.35-1-.85-1.3-1.52-.3-.67-.45-1.48-.45-2.43h0Zm1.86,.12c0,.83,.16,1.46,.48,1.89,.32,.44,.72,.66,1.19,.66s.87-.22,1.19-.66c.32-.44,.48-1.07,.48-1.91s-.16-1.44-.48-1.88c-.32-.44-.72-.66-1.19-.66s-.87,.22-1.19,.66c-.32,.44-.48,1.07-.48,1.89h0Zm6.58-4.16h1.69v1.22c.22-.42,.52-.76,.89-1.02,.37-.26,.79-.39,1.25-.39,.79,0,1.47,.38,2.02,1.13,.55,.76,.83,1.81,.83,3.16s-.28,2.47-.84,3.24c-.56,.77-1.24,1.15-2.03,1.15-.38,0-.72-.09-1.03-.27-.31-.18-.63-.5-.97-.94v4.19h-1.81v-11.48h0Zm1.79,4.02c0,.93,.15,1.62,.46,2.07,.3,.45,.68,.67,1.12,.67s.77-.21,1.05-.61c.28-.41,.42-1.08,.42-2.02,0-.87-.15-1.52-.43-1.94-.29-.42-.64-.63-1.07-.63s-.81,.21-1.1,.62c-.29,.41-.44,1.03-.44,1.84h0Zm6.19-4.02h1.67v1.13c.6-.88,1.31-1.32,2.14-1.32,.44,0,.82,.11,1.14,.33,.32,.22,.59,.55,.79,.99,.3-.44,.62-.77,.97-.99,.35-.22,.72-.33,1.12-.33,.5,0,.93,.12,1.28,.37,.35,.25,.61,.61,.78,1.09,.12,.35,.19,.93,.19,1.72v5.32h-1.81v-4.75c0-.83-.06-1.36-.19-1.6-.17-.31-.42-.47-.77-.47-.26,0-.49,.09-.72,.28-.22,.19-.38,.46-.48,.83-.1,.36-.15,.93-.15,1.72v3.99h-1.81v-4.56c0-.81-.03-1.33-.1-1.57-.06-.24-.17-.41-.3-.52-.14-.11-.32-.17-.55-.17-.28,0-.53,.09-.75,.28-.22,.18-.39,.45-.48,.79-.1,.34-.15,.91-.15,1.71v4.04h-1.81v-8.31h0Zm15.84,5.67l1.81,.37c-.23,.8-.6,1.42-1.1,1.84-.5,.42-1.13,.63-1.88,.63-1.19,0-2.07-.47-2.64-1.42-.45-.75-.68-1.71-.68-2.86,0-1.38,.3-2.46,.89-3.24,.59-.78,1.34-1.17,2.25-1.17,1.02,0,1.82,.41,2.41,1.23,.59,.82,.87,2.07,.84,3.75h-4.54c.01,.65,.16,1.16,.44,1.52,.28,.36,.63,.55,1.05,.55,.28,0,.52-.09,.71-.28,.19-.19,.34-.49,.44-.91h0Zm.1-2.22c-.01-.64-.15-1.12-.4-1.45-.26-.33-.57-.5-.94-.5-.4,0-.72,.18-.98,.53-.26,.35-.38,.82-.38,1.42h2.71Zm9.51,4.87h-1.81v-4.24c0-.9-.04-1.48-.12-1.74-.08-.26-.21-.47-.38-.61-.17-.14-.38-.22-.63-.22-.32,0-.6,.1-.85,.31-.25,.21-.42,.49-.51,.83-.09,.34-.14,.98-.14,1.91v3.77h-1.81v-8.31h1.68v1.22c.6-.94,1.35-1.41,2.26-1.41,.4,0,.77,.09,1.1,.26,.33,.18,.58,.4,.75,.67,.17,.27,.29,.58,.35,.92,.07,.34,.1,.84,.1,1.48v5.17h0Zm4.98-8.31v1.75h-1.24v3.35c0,.68,.01,1.07,.03,1.19,.02,.11,.08,.2,.16,.28,.08,.07,.19,.11,.31,.11,.17,0,.41-.07,.73-.21l.15,1.7c-.42,.22-.9,.33-1.43,.33-.33,0-.62-.07-.88-.2-.26-.13-.45-.31-.58-.52-.12-.21-.21-.5-.26-.86-.04-.25-.06-.77-.06-1.55v-3.62h-.83v-1.75h.83v-1.65l1.82-1.28v2.94h1.24Zm4.95,8.31v-11.48h6.48v1.94h-4.57v2.72h3.95v1.94h-3.95v4.88h-1.91Zm8.04-9.44v-2.04h1.81v2.04h-1.81Zm0,9.44v-8.31h1.81v8.31h-1.81Zm9.9,0h-1.81v-4.24c0-.9-.04-1.48-.12-1.74s-.21-.47-.38-.61c-.17-.14-.38-.22-.63-.22-.31,0-.6,.1-.85,.31-.25,.21-.42,.49-.51,.83-.09,.34-.14,.98-.14,1.91v3.77h-1.81v-8.31h1.68v1.22c.6-.94,1.35-1.41,2.26-1.41,.4,0,.77,.09,1.1,.26,.33,.18,.58,.4,.75,.67,.17,.27,.29,.58,.35,.92,.07,.34,.1,.84,.1,1.48v5.17h0Zm3.19-5.78l-1.64-.36c.19-.8,.5-1.4,.95-1.79,.45-.38,1.12-.58,2.01-.58,.81,0,1.41,.12,1.81,.35,.39,.23,.67,.53,.83,.88,.16,.36,.24,1.01,.24,1.97l-.02,2.57c0,.73,.03,1.27,.09,1.62,.06,.35,.17,.72,.33,1.12h-1.79c-.05-.15-.11-.36-.17-.65-.03-.13-.05-.22-.06-.26-.31,.37-.64,.64-.99,.82-.35,.18-.73,.27-1.13,.27-.7,0-1.26-.23-1.67-.69-.41-.47-.61-1.05-.61-1.76,0-.47,.09-.89,.28-1.26,.19-.37,.45-.65,.78-.84,.33-.2,.81-.37,1.44-.51,.85-.19,1.43-.38,1.76-.54v-.22c0-.42-.09-.72-.26-.9-.17-.18-.5-.27-.97-.27-.32,0-.57,.08-.75,.23-.18,.15-.33,.42-.44,.81h0Zm2.42,1.79c-.23,.09-.6,.21-1.1,.34-.5,.13-.83,.26-.99,.38-.23,.21-.35,.46-.35,.78s.09,.57,.28,.8c.19,.22,.43,.34,.72,.34,.33,0,.64-.13,.94-.39,.22-.2,.36-.44,.43-.73,.05-.19,.07-.55,.07-1.07v-.44h0Zm9.8,3.99h-1.81v-4.24c0-.9-.04-1.48-.12-1.74-.08-.26-.2-.47-.38-.61-.17-.14-.38-.22-.63-.22-.31,0-.6,.1-.85,.31-.25,.21-.42,.49-.51,.83-.09,.34-.14,.98-.14,1.91v3.77h-1.81v-8.31h1.68v1.22c.6-.94,1.35-1.41,2.26-1.41,.4,0,.77,.09,1.1,.26,.33,.18,.58,.4,.75,.67,.17,.27,.29,.58,.35,.92,.07,.34,.1,.84,.1,1.48v5.17h0Zm7.81-5.85l-1.79,.39c-.06-.43-.2-.76-.41-.98-.21-.22-.49-.33-.83-.33-.45,0-.81,.19-1.08,.57-.27,.38-.4,1.01-.4,1.9,0,.99,.14,1.68,.41,2.09,.27,.41,.64,.61,1.1,.61,.35,0,.62-.12,.85-.36,.22-.24,.37-.65,.46-1.22l1.78,.37c-.19,.99-.54,1.74-1.07,2.25-.52,.51-1.23,.76-2.11,.76-1,0-1.8-.38-2.39-1.15-.6-.77-.89-1.83-.89-3.19s.3-2.44,.9-3.2c.6-.77,1.41-1.15,2.43-1.15,.83,0,1.5,.22,1.99,.65,.49,.44,.85,1.1,1.06,1.99h0Zm5.34,3.21l1.81,.37c-.23,.8-.6,1.42-1.1,1.84-.5,.42-1.13,.63-1.88,.63-1.19,0-2.07-.47-2.64-1.42-.45-.75-.68-1.71-.68-2.86,0-1.38,.3-2.46,.89-3.24,.59-.78,1.34-1.17,2.25-1.17,1.02,0,1.82,.41,2.41,1.23,.59,.82,.87,2.07,.85,3.75h-4.54c.01,.65,.16,1.16,.44,1.52,.28,.36,.63,.55,1.05,.55,.28,0,.52-.09,.72-.28,.19-.19,.34-.49,.44-.91h0Zm.1-2.22c-.01-.64-.15-1.12-.41-1.45-.26-.33-.57-.5-.94-.5-.4,0-.72,.18-.98,.53-.26,.35-.39,.82-.38,1.42h2.71Zm-150.26,18.56l1.85,.71c-.28,1.25-.76,2.18-1.42,2.79-.66,.61-1.5,.91-2.51,.91-1.25,0-2.29-.52-3.09-1.56-.81-1.04-1.21-2.47-1.21-4.27,0-1.91,.41-3.39,1.22-4.45,.81-1.06,1.88-1.58,3.2-1.58,1.16,0,2.1,.41,2.82,1.24,.43,.49,.75,1.2,.97,2.11l-1.89,.55c-.11-.6-.34-1.07-.7-1.41-.35-.34-.79-.52-1.29-.52-.7,0-1.27,.3-1.71,.92-.44,.61-.65,1.6-.65,2.97,0,1.45,.21,2.48,.65,3.1,.43,.62,.99,.92,1.68,.92,.51,0,.94-.19,1.31-.59,.36-.39,.63-1.01,.79-1.85h0Zm3.05-.06c0-.73,.15-1.44,.45-2.12,.3-.68,.72-1.21,1.26-1.56,.54-.36,1.15-.54,1.82-.54,1.03,0,1.88,.41,2.55,1.23,.66,.82,.99,1.85,.99,3.1s-.34,2.3-1,3.13c-.67,.83-1.51,1.24-2.52,1.24-.63,0-1.23-.17-1.8-.52-.57-.35-1-.85-1.3-1.52-.3-.67-.45-1.48-.45-2.43h0Zm1.86,.12c0,.83,.16,1.46,.48,1.89,.32,.44,.72,.66,1.19,.66s.87-.22,1.19-.66c.32-.44,.48-1.07,.48-1.91s-.16-1.44-.48-1.88c-.32-.44-.72-.66-1.19-.66s-.87,.22-1.19,.66c-.32,.44-.48,1.07-.48,1.9h0Zm8.36,4.16h-1.81v-8.31h1.68v1.18c.29-.56,.55-.93,.78-1.1,.23-.18,.49-.27,.78-.27,.41,0,.81,.14,1.19,.42l-.56,1.92c-.3-.24-.59-.36-.85-.36s-.47,.08-.65,.25c-.18,.17-.31,.47-.41,.92-.1,.44-.15,1.37-.15,2.79v2.57h0Zm3.35-8.31h1.69v1.22c.22-.42,.52-.76,.89-1.02,.37-.26,.79-.39,1.25-.39,.79,0,1.47,.38,2.02,1.14,.55,.76,.83,1.81,.83,3.17s-.28,2.47-.84,3.23c-.56,.77-1.24,1.15-2.03,1.15-.38,0-.72-.09-1.03-.27-.31-.18-.63-.5-.97-.94v4.19h-1.81v-11.48h0Zm1.79,4.02c0,.93,.15,1.63,.46,2.07,.3,.45,.68,.67,1.12,.67s.77-.21,1.05-.62c.28-.41,.42-1.08,.42-2.01,0-.87-.15-1.52-.43-1.94-.29-.42-.65-.63-1.07-.63s-.81,.21-1.1,.62c-.29,.41-.44,1.03-.44,1.84h0Zm5.91,.02c0-.73,.15-1.44,.45-2.12,.3-.68,.72-1.21,1.26-1.56,.54-.36,1.15-.54,1.82-.54,1.03,0,1.88,.41,2.55,1.23,.66,.82,.99,1.85,.99,3.1s-.33,2.3-1,3.13c-.67,.83-1.51,1.24-2.52,1.24-.63,0-1.23-.17-1.8-.52-.57-.35-1-.85-1.3-1.52-.29-.67-.45-1.48-.45-2.43h0Zm1.86,.12c0,.83,.16,1.46,.48,1.89,.32,.44,.72,.66,1.19,.66s.87-.22,1.19-.66c.32-.44,.48-1.07,.48-1.91s-.16-1.44-.48-1.88c-.32-.44-.72-.66-1.19-.66s-.87,.22-1.19,.66c-.32,.44-.48,1.07-.48,1.9h0Zm8.36,4.16h-1.81v-8.31h1.68v1.18c.29-.56,.55-.93,.78-1.1,.23-.18,.49-.27,.78-.27,.41,0,.81,.14,1.19,.42l-.56,1.92c-.3-.24-.59-.36-.85-.36s-.47,.08-.65,.25c-.18,.17-.31,.47-.42,.92-.1,.44-.15,1.37-.15,2.79v2.57h0Zm4.76-5.78l-1.64-.36c.19-.81,.5-1.4,.95-1.79,.45-.38,1.12-.58,2.01-.58,.81,0,1.41,.12,1.81,.35,.39,.23,.67,.53,.83,.88,.16,.36,.24,1.01,.24,1.97l-.02,2.57c0,.73,.03,1.27,.09,1.62,.06,.35,.17,.72,.33,1.11h-1.79c-.05-.15-.11-.36-.17-.65-.03-.13-.05-.22-.06-.26-.31,.37-.64,.64-.99,.82-.35,.18-.73,.27-1.13,.27-.7,0-1.26-.23-1.67-.69-.41-.46-.61-1.05-.61-1.76,0-.47,.09-.89,.28-1.26,.19-.37,.44-.65,.78-.85,.33-.19,.81-.37,1.44-.51,.85-.19,1.43-.37,1.76-.54v-.22c0-.43-.09-.72-.26-.91-.17-.18-.5-.27-.97-.27-.32,0-.57,.08-.75,.23-.18,.15-.33,.42-.44,.81h0Zm2.42,1.78c-.23,.09-.6,.21-1.1,.34-.5,.13-.83,.26-.99,.38-.24,.21-.35,.46-.35,.77s.1,.58,.28,.8c.19,.22,.43,.34,.72,.34,.33,0,.64-.13,.94-.39,.22-.2,.36-.44,.43-.73,.05-.19,.07-.55,.07-1.07v-.44h0Zm6.71-4.32v1.75h-1.24v3.35c0,.68,.01,1.07,.04,1.19,.02,.11,.08,.2,.16,.28,.08,.07,.19,.11,.31,.11,.17,0,.41-.07,.73-.21l.15,1.7c-.42,.22-.9,.33-1.43,.33-.33,0-.62-.07-.88-.2-.26-.13-.45-.31-.58-.52-.12-.21-.21-.5-.26-.86-.04-.25-.06-.77-.06-1.55v-3.62h-.83v-1.75h.83v-1.65l1.82-1.28v2.94h1.24Zm1.26-1.13v-2.04h1.81v2.04h-1.81Zm0,9.44v-8.31h1.81v8.31h-1.81Zm3.25-4.28c0-.73,.15-1.44,.44-2.12,.3-.68,.72-1.21,1.26-1.56,.54-.36,1.15-.54,1.82-.54,1.03,0,1.89,.41,2.55,1.23,.66,.82,.99,1.85,.99,3.1s-.33,2.3-1,3.13c-.67,.83-1.51,1.24-2.52,1.24-.63,0-1.23-.17-1.8-.52-.57-.35-1-.85-1.3-1.52-.29-.67-.44-1.48-.44-2.43h0Zm1.86,.12c0,.83,.16,1.46,.48,1.89,.32,.44,.72,.66,1.19,.66s.87-.22,1.19-.66c.32-.44,.48-1.07,.48-1.91s-.16-1.44-.48-1.88c-.32-.44-.72-.66-1.19-.66s-.87,.22-1.19,.66c-.32,.44-.48,1.07-.48,1.9h0Zm12.86,4.16h-1.81v-4.24c0-.9-.04-1.48-.12-1.74-.08-.26-.21-.47-.38-.61-.17-.14-.38-.22-.63-.22-.31,0-.6,.1-.85,.31-.25,.21-.42,.49-.51,.83-.09,.34-.14,.98-.14,1.91v3.77h-1.81v-8.31h1.68v1.22c.6-.94,1.35-1.41,2.26-1.41,.4,0,.77,.09,1.1,.26,.33,.18,.58,.4,.75,.67s.29,.58,.36,.93c.07,.34,.1,.84,.1,1.48v5.17h0Zm5.57,0v-11.38h1.91v9.45h4.75v1.93h-6.65Zm8-9.44v-2.04h1.81v2.04h-1.81Zm0,9.44v-8.31h1.81v8.31h-1.81Zm3.53-8.31h1.67v1.13c.6-.88,1.31-1.32,2.13-1.32,.44,0,.82,.11,1.14,.33,.32,.22,.59,.55,.79,.99,.3-.44,.63-.77,.97-.99,.35-.22,.72-.33,1.12-.33,.5,0,.93,.13,1.28,.37,.35,.25,.61,.61,.78,1.09,.13,.36,.19,.93,.19,1.72v5.32h-1.81v-4.75c0-.83-.06-1.36-.19-1.6-.17-.31-.43-.47-.77-.47-.26,0-.49,.09-.72,.28-.22,.19-.38,.46-.48,.83-.1,.36-.15,.94-.15,1.72v3.99h-1.81v-4.56c0-.81-.03-1.33-.1-1.57-.06-.23-.17-.41-.3-.52-.14-.12-.32-.17-.55-.17-.28,0-.53,.09-.75,.28-.22,.18-.39,.45-.48,.79-.1,.34-.14,.91-.14,1.71v4.04h-1.81v-8.31h0Zm11.88-1.13v-2.04h1.81v2.04h-1.81Zm0,9.44v-8.31h1.81v8.31h-1.81Zm6.81-8.31v1.75h-1.24v3.35c0,.68,.01,1.07,.03,1.19,.02,.11,.08,.2,.16,.28,.08,.07,.19,.11,.31,.11,.17,0,.41-.07,.73-.21l.15,1.7c-.42,.22-.9,.33-1.43,.33-.33,0-.62-.07-.88-.2-.26-.13-.45-.31-.58-.52-.12-.21-.21-.5-.26-.86-.04-.25-.06-.77-.06-1.55v-3.62h-.83v-1.75h.83v-1.65l1.82-1.28v2.94h1.24Z"/>
  <path class="cls-4" d="M252.08,255.91l1.81,.37c-.23,.8-.6,1.42-1.1,1.84-.5,.42-1.13,.63-1.88,.63-1.19,0-2.07-.47-2.64-1.42-.45-.76-.68-1.71-.68-2.87,0-1.38,.3-2.46,.89-3.24,.59-.78,1.34-1.17,2.25-1.17,1.02,0,1.82,.41,2.41,1.23,.59,.82,.87,2.07,.85,3.75h-4.54c.01,.65,.16,1.16,.44,1.52,.28,.36,.63,.54,1.05,.54,.28,0,.52-.09,.72-.28,.19-.19,.34-.49,.44-.91h0Zm.1-2.22c-.01-.64-.15-1.12-.41-1.45-.26-.33-.57-.5-.94-.5-.4,0-.72,.18-.98,.53-.26,.35-.39,.82-.38,1.42h2.71Zm9.56,4.87h-1.68v-1.22c-.28,.48-.61,.83-.99,1.06-.38,.23-.76,.35-1.15,.35-.79,0-1.46-.39-2.02-1.15-.56-.77-.84-1.84-.84-3.22s.27-2.48,.82-3.22c.55-.73,1.24-1.1,2.07-1.1,.76,0,1.43,.39,1.99,1.16v-4.13h1.81v11.48h0Zm-4.84-4.34c0,.89,.1,1.53,.3,1.93,.29,.57,.7,.86,1.22,.86,.42,0,.77-.22,1.07-.65,.29-.43,.44-1.07,.44-1.93,0-.95-.14-1.64-.42-2.06-.28-.42-.65-.63-1.09-.63s-.79,.21-1.08,.62c-.29,.41-.44,1.03-.44,1.86h0Z"/>
</svg>